<svg width="180" height="180" viewBox="0 0 180 180" fill="none" xmlns="http://www.w3.org/2000/svg">
  <defs>
    <!-- Advanced gradients -->
    <radialGradient id="mainBg" cx="0.5" cy="0.3" r="1.2">
      <stop offset="0%" stop-color="#1a1a2e"/>
      <stop offset="50%" stop-color="#16213e"/>
      <stop offset="100%" stop-color="#0a0a0a"/>
    </radialGradient>
    
    <linearGradient id="crystalMain" x1="0%" y1="0%" x2="100%" y2="100%">
      <stop offset="0%" stop-color="#00ffff"/>
      <stop offset="20%" stop-color="#00d4ff"/>
      <stop offset="50%" stop-color="#0096ff"/>
      <stop offset="80%" stop-color="#0066cc"/>
      <stop offset="100%" stop-color="#003d7a"/>
    </linearGradient>
    
    <linearGradient id="goldMain" x1="0%" y1="0%" x2="100%" y2="100%">
      <stop offset="0%" stop-color="#fff2a6"/>
      <stop offset="30%" stop-color="#ffec8b"/>
      <stop offset="70%" stop-color="#ffd700"/>
      <stop offset="100%" stop-color="#b8860b"/>
    </linearGradient>
    
    <radialGradient id="superGlow" cx="0.5" cy="0.5" r="1">
      <stop offset="0%" stop-color="#00ffff" stop-opacity="0.8"/>
      <stop offset="40%" stop-color="#00c8ff" stop-opacity="0.5"/>
      <stop offset="70%" stop-color="#0096ff" stop-opacity="0.2"/>
      <stop offset="100%" stop-color="#0096ff" stop-opacity="0"/>
    </radialGradient>
    
    <!-- Filters for effects -->
    <filter id="glow" x="-50%" y="-50%" width="200%" height="200%">
      <feGaussianBlur stdDeviation="3" result="coloredBlur"/>
      <feMerge>
        <feMergeNode in="coloredBlur"/>
        <feMergeNode in="SourceGraphic"/>
      </feMerge>
    </filter>
    
    <filter id="innerShadow" x="-50%" y="-50%" width="200%" height="200%">
      <feDropShadow dx="0" dy="2" stdDeviation="4" flood-color="#000000" flood-opacity="0.6"/>
    </filter>
  </defs>
  
  <!-- iOS background -->
  <rect width="180" height="180" fill="url(#mainBg)" rx="32"/>
  
  <!-- Massive outer glow -->
  <path d="M90 15L155 45V135L90 165L25 135V45L90 15Z" fill="url(#superGlow)" opacity="0.4"/>
  
  <!-- Main hextech crystal structure -->
  <g filter="url(#innerShadow)">
    <path d="M90 20L150 50V130L90 160L30 130V50L90 20Z" 
          fill="url(#crystalMain)" 
          stroke="#00ffff" 
          stroke-width="2"/>
    
    <!-- Multiple crystal layers for depth -->
    <path d="M90 30L135 52V128L90 150L45 128V52L90 30Z" 
          fill="#0096ff" 
          opacity="0.6"/>
    <path d="M90 35L130 55V125L90 145L50 125V55L90 35Z" 
          fill="#00c8ff" 
          opacity="0.3"/>
    <path d="M90 40L125 58V122L90 140L55 122V58L90 40Z" 
          fill="#00d4ff" 
          opacity="0.2"/>
  </g>
  
  <!-- Crystal facet highlights -->
  <path d="M90 20L150 50L90 70L30 50L90 20Z" fill="#00ffff" opacity="0.7"/>
  <path d="M90 110L150 130L90 160L30 130L90 110Z" fill="#003d7a" opacity="0.8"/>
  <path d="M30 50L90 70L30 130Z" fill="#0066cc" opacity="0.4"/>
  <path d="M150 50L90 70L150 130Z" fill="#00c8ff" opacity="0.4"/>
  
  <!-- Advanced AI visualization -->
  <g transform="translate(90, 90)" filter="url(#glow)">
    <!-- Central AI core with multiple layers -->
    <circle cx="0" cy="-25" r="12" fill="url(#goldMain)"/>
    <circle cx="0" cy="-25" r="9" fill="#ffffff" opacity="0.9"/>
    <circle cx="0" cy="-25" r="6" fill="#ffd700"/>
    <circle cx="0" cy="-25" r="3" fill="#ffffff" opacity="0.8"/>
    
    <!-- Neural network connections -->
    <g stroke="url(#goldMain)" stroke-width="2" fill="none" opacity="0.8">
      <path d="M-20 -10L-6 -20"/>
      <path d="M20 -10L6 -20"/>
      <path d="M-25 10L-8 -15"/>
      <path d="M25 10L8 -15"/>
      <path d="M0 20L0 -13"/>
      <path d="M-15 15L-4 -17"/>
      <path d="M15 15L4 -17"/>
    </g>
    
    <!-- Data nodes with varying sizes -->
    <circle cx="-20" cy="-10" r="4" fill="#ffec8b"/>
    <circle cx="20" cy="-10" r="4" fill="#ffec8b"/>
    <circle cx="-25" cy="15" r="3.5" fill="#ffd700"/>
    <circle cx="25" cy="15" r="3.5" fill="#ffd700"/>
    <circle cx="0" cy="25" r="3" fill="#cc8400"/>
    <circle cx="-15" cy="20" r="2.5" fill="#ffec8b" opacity="0.8"/>
    <circle cx="15" cy="20" r="2.5" fill="#ffec8b" opacity="0.8"/>
    
    <!-- Advanced analytics visualization -->
    <g transform="translate(0, 5)">
      <rect x="-8" y="5" width="3" height="12" fill="url(#goldMain)" rx="1"/>
      <rect x="-3" y="2" width="3" height="15" fill="#ffec8b" rx="1"/>
      <rect x="2" y="0" width="3" height="17" fill="#ffd700" rx="1"/>
      <rect x="7" y="3" width="3" height="14" fill="#cc8400" rx="1"/>
    </g>
    
    <!-- Floating data particles -->
    <circle cx="-35" cy="-5" r="1.5" fill="#00c8ff" opacity="0.6"/>
    <circle cx="35" cy="-5" r="1.5" fill="#00c8ff" opacity="0.6"/>
    <circle cx="-30" cy="25" r="1" fill="#ffd700" opacity="0.5"/>
    <circle cx="30" cy="25" r="1" fill="#ffd700" opacity="0.5"/>
  </g>
  
  <!-- Outer border with subtle glow -->
  <rect width="180" height="180" fill="none" 
        stroke="url(#superGlow)" 
        stroke-width="1" 
        rx="32" 
        opacity="0.4"/>
</svg>