<svg width="32" height="32" viewBox="0 0 32 32" fill="none" xmlns="http://www.w3.org/2000/svg">
  <defs>
    <!-- Gradients for depth and glow -->
    <radialGradient id="bgGradient" cx="0.5" cy="0.3" r="0.8">
      <stop offset="0%" stop-color="#1a1a2e"/>
      <stop offset="100%" stop-color="#0a0a0a"/>
    </radialGradient>
    
    <linearGradient id="crystalGradient" x1="0%" y1="0%" x2="100%" y2="100%">
      <stop offset="0%" stop-color="#00d4ff"/>
      <stop offset="30%" stop-color="#0096ff"/>
      <stop offset="70%" stop-color="#0066cc"/>
      <stop offset="100%" stop-color="#003d7a"/>
    </linearGradient>
    
    <linearGradient id="goldGradient" x1="0%" y1="0%" x2="100%" y2="100%">
      <stop offset="0%" stop-color="#ffec8b"/>
      <stop offset="50%" stop-color="#ffd700"/>
      <stop offset="100%" stop-color="#cc8400"/>
    </linearGradient>
    
    <radialGradient id="glowEffect" cx="0.5" cy="0.5" r="0.8">
      <stop offset="0%" stop-color="#00c8ff" stop-opacity="0.8"/>
      <stop offset="70%" stop-color="#0096ff" stop-opacity="0.3"/>
      <stop offset="100%" stop-color="#0096ff" stop-opacity="0"/>
    </radialGradient>
    
    <!-- Drop shadow filter -->
    <filter id="dropShadow" x="-50%" y="-50%" width="200%" height="200%">
      <feDropShadow dx="0" dy="1" stdDeviation="1" flood-color="#000000" flood-opacity="0.5"/>
    </filter>
  </defs>
  
  <!-- Background with gradient -->
  <rect width="32" height="32" fill="url(#bgGradient)" rx="7"/>
  
  <!-- Outer glow effect -->
  <path d="M16 3L25.5 8.5V23.5L16 29L6.5 23.5V8.5L16 3Z" fill="url(#glowEffect)" opacity="0.6"/>
  
  <!-- Main hextech crystal with detailed facets -->
  <path d="M16 4L24 8.5V23.5L16 28L8 23.5V8.5L16 4Z" 
        fill="url(#crystalGradient)" 
        stroke="#00d4ff" 
        stroke-width="0.8" 
        filter="url(#dropShadow)"/>
  
  <!-- Inner crystal facets for depth -->
  <path d="M16 6L22 9.5V22.5L16 26L10 22.5V9.5L16 6Z" 
        fill="#0096ff" 
        opacity="0.4"/>
  <path d="M16 8L20 10.5V21.5L16 24L12 21.5V10.5L16 8Z" 
        fill="#00c8ff" 
        opacity="0.2"/>
  
  <!-- Crystal edge highlights -->
  <path d="M16 4L24 8.5L16 12L8 8.5L16 4Z" fill="#00d4ff" opacity="0.6"/>
  <path d="M16 20L24 23.5L16 28L8 23.5L16 20Z" fill="#003d7a" opacity="0.8"/>
  
  <!-- AI Analytics visualization - neural network style -->
  <g transform="translate(16, 16)">
    <!-- Central AI core -->
    <circle cx="0" cy="-6" r="2.5" fill="url(#goldGradient)" filter="url(#dropShadow)"/>
    <circle cx="0" cy="-6" r="1.5" fill="#ffffff" opacity="0.9"/>
    <circle cx="0" cy="-6" r="0.8" fill="#ffd700"/>
    
    <!-- Data flow lines -->
    <path d="M-5 -2L-2 -4.5" stroke="#ffd700" stroke-width="1" opacity="0.8"/>
    <path d="M5 -2L2 -4.5" stroke="#ffd700" stroke-width="1" opacity="0.8"/>
    <path d="M-3 2L-1 -3" stroke="#ffd700" stroke-width="1" opacity="0.6"/>
    <path d="M3 2L1 -3" stroke="#ffd700" stroke-width="1" opacity="0.6"/>
    
    <!-- Data nodes -->
    <circle cx="-5" cy="-2" r="1" fill="#ffec8b"/>
    <circle cx="5" cy="-2" r="1" fill="#ffec8b"/>
    <circle cx="-3" cy="3" r="0.8" fill="#ffd700" opacity="0.8"/>
    <circle cx="3" cy="3" r="0.8" fill="#ffd700" opacity="0.8"/>
    <circle cx="0" cy="4" r="0.6" fill="#cc8400" opacity="0.6"/>
    
    <!-- Micro analytics bars -->
    <rect x="-1" y="1" width="0.8" height="2" fill="#ffd700" rx="0.2" opacity="0.9"/>
    <rect x="0.2" y="0.5" width="0.8" height="2.5" fill="#ffec8b" rx="0.2"/>
  </g>
  
  <!-- Subtle outer border glow -->
  <rect width="32" height="32" fill="none" stroke="url(#glowEffect)" stroke-width="0.5" rx="7" opacity="0.3"/>
</svg>