<svg width="512" height="512" viewBox="0 0 512 512" fill="none" xmlns="http://www.w3.org/2000/svg">
  <defs>
    <!-- Ultra-detailed gradients -->
    <radialGradient id="ultraBg" cx="0.5" cy="0.25" r="1.5">
      <stop offset="0%" stop-color="#2a2a4e"/>
      <stop offset="30%" stop-color="#1a1a3e"/>
      <stop offset="70%" stop-color="#16213e"/>
      <stop offset="100%" stop-color="#0a0a0a"/>
    </radialGradient>
    
    <linearGradient id="ultraCrystal" x1="0%" y1="0%" x2="100%" y2="100%">
      <stop offset="0%" stop-color="#66ffff"/>
      <stop offset="15%" stop-color="#33f3ff"/>
      <stop offset="30%" stop-color="#00d4ff"/>
      <stop offset="50%" stop-color="#0096ff"/>
      <stop offset="70%" stop-color="#0066cc"/>
      <stop offset="85%" stop-color="#004499"/>
      <stop offset="100%" stop-color="#003d7a"/>
    </linearGradient>
    
    <linearGradient id="ultraGold" x1="0%" y1="0%" x2="100%" y2="100%">
      <stop offset="0%" stop-color="#fffacd"/>
      <stop offset="20%" stop-color="#fff8b3"/>
      <stop offset="40%" stop-color="#ffec8b"/>
      <stop offset="60%" stop-color="#ffd700"/>
      <stop offset="80%" stop-color="#daa520"/>
      <stop offset="100%" stop-color="#b8860b"/>
    </linearGradient>
    
    <radialGradient id="megaGlow" cx="0.5" cy="0.5" r="1.2">
      <stop offset="0%" stop-color="#66ffff" stop-opacity="1"/>
      <stop offset="20%" stop-color="#33f3ff" stop-opacity="0.8"/>
      <stop offset="40%" stop-color="#00d4ff" stop-opacity="0.6"/>
      <stop offset="60%" stop-color="#00c8ff" stop-opacity="0.4"/>
      <stop offset="80%" stop-color="#0096ff" stop-opacity="0.2"/>
      <stop offset="100%" stop-color="#0096ff" stop-opacity="0"/>
    </radialGradient>
    
    <!-- Advanced filters -->
    <filter id="megaGlowFilter" x="-100%" y="-100%" width="300%" height="300%">
      <feGaussianBlur stdDeviation="8" result="coloredBlur"/>
      <feMerge>
        <feMergeNode in="coloredBlur"/>
        <feMergeNode in="SourceGraphic"/>
      </feMerge>
    </filter>
    
    <filter id="deepShadow" x="-50%" y="-50%" width="200%" height="200%">
      <feDropShadow dx="0" dy="8" stdDeviation="12" flood-color="#000000" flood-opacity="0.8"/>
    </filter>
    
    <filter id="innerGlow" x="-50%" y="-50%" width="200%" height="200%">
      <feGaussianBlur stdDeviation="4" result="coloredBlur"/>
      <feMerge>
        <feMergeNode in="coloredBlur"/>
        <feMergeNode in="SourceGraphic"/>
      </feMerge>
    </filter>
  </defs>
  
  <!-- Ultra HD background -->
  <rect width="512" height="512" fill="url(#ultraBg)" rx="90"/>
  
  <!-- Massive ambient glow -->
  <path d="M256 40L420 120V392L256 472L92 392V120L256 40Z" fill="url(#megaGlow)" opacity="0.3"/>
  
  <!-- Main hextech crystal with extreme detail -->
  <g filter="url(#deepShadow)">
    <path d="M256 60L400 140V372L256 452L112 372V140L256 60Z" 
          fill="url(#ultraCrystal)" 
          stroke="#66ffff" 
          stroke-width="4"/>
    
    <!-- Multiple crystal depth layers -->
    <path d="M256 80L380 150V362L256 432L132 362V150L256 80Z" 
          fill="#0096ff" 
          opacity="0.7"/>
    <path d="M256 100L360 160V352L256 412L152 352V160L256 100Z" 
          fill="#00c8ff" 
          opacity="0.5"/>
    <path d="M256 120L340 170V342L256 392L172 342V170L256 120Z" 
          fill="#00d4ff" 
          opacity="0.3"/>
    <path d="M256 140L320 180V332L256 372L192 332V180L256 140Z" 
          fill="#33f3ff" 
          opacity="0.2"/>
  </g>
  
  <!-- Crystal facet details -->
  <path d="M256 60L400 140L256 200L112 140L256 60Z" fill="#66ffff" opacity="0.8"/>
  <path d="M256 312L400 372L256 452L112 372L256 312Z" fill="#003d7a" opacity="0.9"/>
  <path d="M112 140L256 200L112 372Z" fill="#0066cc" opacity="0.5"/>
  <path d="M400 140L256 200L400 372Z" fill="#00c8ff" opacity="0.5"/>
  
  <!-- Advanced AI neural network visualization -->
  <g transform="translate(256, 256)" filter="url(#megaGlowFilter)">
    <!-- Central AI consciousness core -->
    <circle cx="0" cy="-80" r="32" fill="url(#ultraGold)"/>
    <circle cx="0" cy="-80" r="24" fill="#ffffff" opacity="0.95"/>
    <circle cx="0" cy="-80" r="18" fill="#ffd700"/>
    <circle cx="0" cy="-80" r="12" fill="#ffffff" opacity="0.8"/>
    <circle cx="0" cy="-80" r="8" fill="#ffec8b"/>
    <circle cx="0" cy="-80" r="4" fill="#ffffff"/>
    
    <!-- Complex neural network -->
    <g stroke="url(#ultraGold)" stroke-width="4" fill="none" opacity="0.9">
      <!-- Primary connections -->
      <path d="M-60 -30L-20 -65"/>
      <path d="M60 -30L20 -65"/>
      <path d="M-80 30L-25 -55"/>
      <path d="M80 30L25 -55"/>
      <path d="M0 60L0 -48"/>
      
      <!-- Secondary neural paths -->
      <path d="M-45 40L-15 -60"/>
      <path d="M45 40L15 -60"/>
      <path d="M-70 0L-30 -70"/>
      <path d="M70 0L30 -70"/>
      
      <!-- Tertiary connections -->
      <path d="M-50 50L-10 -50"/>
      <path d="M50 50L10 -50"/>
    </g>
    
    <!-- Major data nodes -->
    <circle cx="-60" cy="-30" r="12" fill="#ffec8b" filter="url(#innerGlow)"/>
    <circle cx="60" cy="-30" r="12" fill="#ffec8b" filter="url(#innerGlow)"/>
    <circle cx="-80" cy="40" r="10" fill="#ffd700" filter="url(#innerGlow)"/>
    <circle cx="80" cy="40" r="10" fill="#ffd700" filter="url(#innerGlow)"/>
    <circle cx="0" cy="70" r="8" fill="#daa520" filter="url(#innerGlow)"/>
    
    <!-- Secondary nodes -->
    <circle cx="-45" cy="50" r="6" fill="#ffec8b" opacity="0.9"/>
    <circle cx="45" cy="50" r="6" fill="#ffec8b" opacity="0.9"/>
    <circle cx="-70" cy="10" r="5" fill="#ffd700" opacity="0.8"/>
    <circle cx="70" cy="10" r="5" fill="#ffd700" opacity="0.8"/>
    
    <!-- Advanced analytics visualization -->
    <g transform="translate(0, 20)">
      <rect x="-25" y="15" width="8" height="35" fill="url(#ultraGold)" rx="3" filter="url(#innerGlow)"/>
      <rect x="-12" y="8" width="8" height="42" fill="#ffec8b" rx="3" filter="url(#innerGlow)"/>
      <rect x="1" y="5" width="8" height="45" fill="#ffd700" rx="3" filter="url(#innerGlow)"/>
      <rect x="14" y="12" width="8" height="38" fill="#daa520" rx="3" filter="url(#innerGlow)"/>
      <rect x="27" y="18" width="8" height="32" fill="#b8860b" rx="3" filter="url(#innerGlow)"/>
    </g>
    
    <!-- Floating data particles with animation effect -->
    <g opacity="0.7">
      <circle cx="-120" cy="-20" r="4" fill="#00c8ff"/>
      <circle cx="120" cy="-20" r="4" fill="#00c8ff"/>
      <circle cx="-100" cy="80" r="3" fill="#ffd700"/>
      <circle cx="100" cy="80" r="3" fill="#ffd700"/>
      <circle cx="-130" cy="50" r="2" fill="#00d4ff"/>
      <circle cx="130" cy="50" r="2" fill="#00d4ff"/>
    </g>
    
    <!-- Energy pulses -->
    <g stroke="#00c8ff" stroke-width="2" fill="none" opacity="0.4">
      <circle cx="0" cy="-80" r="40"/>
      <circle cx="0" cy="-80" r="60"/>
      <circle cx="0" cy="-80" r="90"/>
    </g>
  </g>
  
  <!-- Ultra-detailed outer border -->
  <rect width="512" height="512" fill="none" 
        stroke="url(#megaGlow)" 
        stroke-width="3" 
        rx="90" 
        opacity="0.6"/>
        
  <!-- Inner border for extra depth -->
  <rect x="20" y="20" width="472" height="472" fill="none" 
        stroke="#00c8ff" 
        stroke-width="1" 
        rx="70" 
        opacity="0.3"/>
</svg>